<svg width="138" height="49" viewBox="0 0 138 49" fill="none" xmlns="http://www.w3.org/2000/svg">
<path d="M46.5384 38.3305C46.076 39.1347 45.3243 39.7209 44.4448 39.9629L44.4219 39.9694C42.6654 40.4536 41.1228 39.766 40.6801 39.5499L31.345 34.6074C28.9248 33.3263 27.9466 30.4226 29.1598 28.1195C30.3727 25.8171 33.3183 24.9895 35.7381 26.2705C35.7733 26.3019 37.9158 27.8489 45.2886 33.1553C46.9843 34.3769 47.5226 36.6042 46.5384 38.3305Z" fill="#459696"/>
<path d="M53.7134 24.1057C54.4473 23.5458 55.3646 23.3 56.2719 23.4202L56.2951 23.4235C58.0974 23.6663 59.248 24.9059 59.5707 25.2785L66.2302 33.5007C67.9565 35.6321 67.7274 38.6957 65.7186 40.3422C63.7097 41.9894 60.6819 41.5969 58.9556 39.4655C58.9355 39.4226 57.5678 37.1566 52.8534 29.3671C51.7686 27.5773 52.1388 25.3117 53.7134 24.1057Z" fill="#459696"/>
<path d="M48.6347 46.5344L44.8901 46.9525C43.8014 47.0744 42.827 46.5878 42.636 45.8273L41.8801 42.8182C41.6419 41.8697 42.7074 40.9361 44.0677 40.9014L48.2814 40.7932C49.356 40.7658 50.2262 41.321 50.3075 42.0862L50.5939 44.7843C50.6829 45.6206 49.8057 46.4038 48.6347 46.5344Z" fill="#459696"/>
<path d="M52.7787 46.2522L56.1507 45.8755C57.131 45.7673 57.8896 45.0858 57.9055 44.3022L57.9688 41.2018C57.9889 40.2242 56.8668 39.5348 55.6651 39.7862L51.9434 40.5651C50.9933 40.7639 50.3406 41.4894 50.4219 42.2545L50.7086 44.9527C50.7973 45.7882 51.7252 46.3698 52.7787 46.2522Z" fill="#459696"/>
<path d="M23.6838 11.1868C24.4321 11.1868 24.9937 11.2119 25.3686 11.2622C25.7434 11.3124 26.1661 11.4709 26.6367 11.7377C27.1082 12.0053 27.4419 12.4559 27.6378 13.0894C27.8337 13.7229 27.9314 14.5741 27.9309 15.6429C27.9309 16.7115 27.8332 17.5625 27.6378 18.196C27.4424 18.8295 27.1006 19.2718 26.6124 19.5229C26.124 19.7733 25.6926 19.9235 25.3183 19.9735C24.9439 20.0235 24.3661 20.0487 23.5849 20.0489H11.1093C10.7855 20.0489 10.4648 20.1142 10.1656 20.2413C9.86639 20.3683 9.59453 20.5545 9.36553 20.7893C9.13654 21.0241 8.95491 21.3028 8.831 21.6096C8.70709 21.9163 8.64334 22.2451 8.64339 22.5771C8.64339 23.2477 8.90319 23.8907 9.36564 24.3648C9.82809 24.839 10.4553 25.1054 11.1093 25.1054H18.2622C19.0433 25.1054 19.6211 25.1304 19.9955 25.1804C20.3699 25.2304 20.8013 25.389 21.2897 25.6562C22.1365 26.1572 22.5602 27.4756 22.5606 29.6113C22.5606 31.9483 21.9422 33.3335 20.7052 33.7669C20.1837 33.9353 19.3536 34.0187 18.2147 34.0173H11.1093C10.4554 34.0173 9.8282 34.2836 9.36576 34.7576C8.90332 35.2317 8.64348 35.8747 8.64339 36.5451V43.4793C8.64339 44.2807 8.61899 44.8648 8.5702 45.2316C8.5214 45.5984 8.3667 46.0323 8.10608 46.5336C7.65005 47.4347 6.3805 47.8853 4.29741 47.8853C2.01799 47.8853 0.683218 47.2511 0.293109 45.9827C0.0977032 45.4495 0 44.5984 0 43.4296V15.5928C0 13.8907 0.309296 12.7308 0.927887 12.1132C1.54648 11.4956 2.71845 11.1868 4.44379 11.1868H23.6838Z" fill="#C4D650"/>
<path d="M111.142 11.137L120.176 11.1867C124.896 11.1867 129.047 12.9304 132.628 16.4178C136.21 19.9052 138 24.1942 138 29.2848C138 34.3751 136.25 38.7393 132.75 42.3772C129.251 46.0151 125.01 47.8351 120.029 47.837H111.092C109.106 47.837 107.868 47.4198 107.38 46.5855C106.99 45.8847 106.794 44.8166 106.794 43.3812V15.5426C106.794 14.7417 106.819 14.1576 106.868 13.7904C106.916 13.4231 107.071 12.9892 107.332 12.4887C107.788 11.5876 109.058 11.137 111.142 11.137ZM126.524 36.2951C128.412 34.51 129.356 32.2655 129.356 29.5615C129.357 26.8574 128.437 24.5967 126.597 22.7791C124.758 20.9602 122.601 20.0507 120.127 20.0507H117.905C117.251 20.0507 116.624 20.3171 116.161 20.7912C115.699 21.2653 115.439 21.9084 115.439 22.5789V36.4473C115.439 37.1178 115.699 37.7608 116.162 38.235C116.624 38.7091 117.251 38.9755 117.905 38.9756H120.176C122.52 38.9744 124.636 38.0809 126.524 36.2951Z" fill="#C4D650"/>
<path d="M85.7512 10.7366C90.5691 10.7366 94.7524 12.5222 98.3011 16.0935C101.85 19.6648 103.624 24.0957 103.624 29.3862C103.624 34.6774 101.931 39.1833 98.5453 42.904C95.1596 46.6246 90.992 48.4854 86.0426 48.4864C81.0929 48.4864 76.8851 46.6506 73.4192 42.979C69.9532 39.3074 68.2197 34.935 68.2185 29.8617C68.2185 27.0917 68.7069 24.4967 69.6837 22.0764C70.6605 19.6562 71.9624 17.6286 73.5895 15.9936C75.212 14.3619 77.1168 13.0544 79.2064 12.1381C81.3216 11.2042 83.5032 10.7371 85.7512 10.7366ZM76.8619 29.6113C76.8619 32.5826 77.7979 34.9941 79.6698 36.846C81.5418 38.698 83.6334 39.6239 85.9448 39.6239C88.2559 39.6239 90.3394 38.7227 92.1954 36.9204C94.0514 35.118 94.9793 32.6981 94.9791 29.6607C94.9791 26.6238 94.0431 24.1872 92.1711 22.351C90.2992 20.5147 88.2074 19.5968 85.8959 19.5973C83.5841 19.5973 81.5006 20.5232 79.6456 22.3751C77.7905 24.227 76.8626 26.6391 76.8619 29.6113Z" fill="#C4D650"/>
<path d="M61.9647 31.3664C61.9161 31.1943 61.7961 30.7668 61.5403 30.7354C61.5237 30.7338 61.507 30.7338 61.4903 30.7354C61.4762 30.7362 61.4624 30.7314 61.4516 30.722C61.4409 30.7126 61.4341 30.6993 61.4326 30.6849C61.3328 29.7511 61.1457 28.8294 60.8739 27.9323C60.8709 27.9218 60.8709 27.9107 60.8739 27.9003C60.8769 27.8899 60.8827 27.8805 60.8907 27.8733C60.8986 27.8661 60.9084 27.8614 60.9189 27.8597C60.9294 27.858 60.9401 27.8594 60.9499 27.8637C61.1395 27.9424 61.2979 27.963 61.3218 27.9276C61.3792 27.8428 60.7387 27.3111 60.6159 27.1401C60.6129 27.1358 60.6105 27.131 60.6089 27.126L60.5969 27.0932V27.091C60.6321 27.0499 60.984 27.3634 61.0927 27.275C61.1796 27.2046 61.0832 26.8987 60.9122 26.6978C60.8953 26.6776 60.6149 26.3529 60.408 26.4348C60.394 26.441 60.3782 26.4413 60.364 26.4357C60.3498 26.4301 60.3383 26.419 60.332 26.4048C60.06 25.7357 59.7425 25.0871 59.3819 24.4636C57.4649 21.1806 53.1211 16.7851 47.5773 17.1116C47.5679 17.1123 47.5585 17.1106 47.55 17.1065C47.5414 17.1025 47.534 17.0963 47.5285 17.0884C47.523 17.0806 47.5196 17.0714 47.5185 17.0619C47.5174 17.0523 47.5188 17.0426 47.5224 17.0337C47.6903 16.6368 47.812 16.2349 47.6692 16.1375C47.5126 16.0293 47.071 16.3082 46.9 16.6249C46.8664 16.6883 46.8401 16.7555 46.8219 16.8251C46.7988 16.9246 46.7955 17.0278 46.8124 17.1285C46.8133 17.1361 46.8128 17.1438 46.8108 17.1512C46.8088 17.1586 46.8054 17.1655 46.8009 17.1715C46.7963 17.1775 46.7906 17.1826 46.7841 17.1863C46.7776 17.1901 46.7705 17.1925 46.7631 17.1935L46.6656 17.2068C46.6572 17.2082 46.6486 17.2076 46.6404 17.205C46.6322 17.2024 46.6247 17.198 46.6185 17.192C46.471 17.0477 46.2867 16.8482 46.1807 16.8937C46.1072 16.9251 46.078 17.0715 46.0945 17.2595C46.0956 17.2733 46.0916 17.287 46.0835 17.2981C46.0753 17.3091 46.0635 17.3167 46.0502 17.3194C39.1926 18.7924 36.8452 26.8363 36.6021 27.7209C36.5637 27.8601 36.5043 28.0759 36.4378 28.3569C36.2874 29.0027 36.1781 29.6577 36.1105 30.318C36.1095 30.3264 36.1068 30.3344 36.1024 30.3416C36.0981 30.3487 36.0923 30.3548 36.0854 30.3595C36.0786 30.3641 36.0708 30.3672 36.0627 30.3684C36.0546 30.3697 36.0463 30.3691 36.0384 30.3667C35.9653 30.3455 35.8895 30.336 35.8135 30.3386C35.3603 30.3552 35.0183 30.8126 35.0834 30.9389C35.1253 31.0193 35.3237 30.9429 35.5408 30.9115C35.5534 30.9094 35.5663 30.9119 35.5773 30.9185C35.5883 30.9251 35.5967 30.9353 35.6012 30.9475C35.6056 30.9597 35.6058 30.9732 35.6018 30.9855C35.5977 30.9979 35.5896 31.0084 35.5788 31.0154C35.4004 31.1294 35.2695 31.2798 35.2864 31.3833C35.3146 31.5576 35.7643 31.6099 35.9845 31.7026C35.9951 31.7066 36.0041 31.7139 36.0104 31.7234C36.0167 31.7329 36.02 31.7442 36.0197 31.7557C36.0197 31.7917 36.0197 31.8278 36.018 31.8668C36.0178 31.8775 36.0146 31.8879 36.0089 31.8968C36.0032 31.9058 35.9951 31.9128 35.9856 31.9173C35.8927 31.9613 35.7674 32.0165 35.6918 32.1464C35.5296 32.4249 35.6855 32.896 35.8568 32.9213C35.8907 32.9246 35.9245 32.9152 35.9522 32.8949C35.9603 32.8894 35.9698 32.8861 35.9795 32.8854C35.9893 32.8847 35.9991 32.8867 36.0079 32.8911C36.0167 32.8955 36.0242 32.9022 36.0297 32.9106C36.0352 32.9189 36.0384 32.9286 36.0391 32.9386C36.1323 34.6703 36.5317 36.6544 37.5828 38.525C37.5869 38.5324 37.5893 38.5406 37.5898 38.5491C37.5904 38.5576 37.589 38.5661 37.5859 38.574C37.5828 38.5819 37.578 38.5889 37.5718 38.5946C37.5657 38.6003 37.5583 38.6045 37.5504 38.6069C37.1718 38.7238 36.8593 38.8692 36.8685 38.9085C36.8794 38.9561 37.379 38.8785 37.7439 38.8583C37.7539 38.8577 37.7638 38.8598 37.7727 38.8645C37.7816 38.8692 37.789 38.8763 37.7942 38.885C37.8259 38.9366 37.8579 38.9879 37.8906 39.0394C37.8984 39.0514 37.9014 39.066 37.8988 39.0802C37.8962 39.0943 37.8884 39.1069 37.8769 39.1152C37.7531 39.2058 37.6172 39.3317 37.5602 39.5243C37.5416 39.5871 37.5085 39.6982 37.5602 39.7942C37.6704 40.0023 38.125 40.0543 38.4227 39.8775C38.4344 39.8707 38.4481 39.8685 38.4613 39.8711C38.4745 39.8737 38.4864 39.8811 38.4948 39.8919C38.5177 39.9215 38.5405 39.9511 38.5652 39.9803L38.5778 39.9962C38.5846 40.0047 38.5888 40.015 38.5898 40.0259C38.5909 40.0368 38.5888 40.0478 38.5838 40.0575C38.4311 40.3663 38.4392 40.7314 38.5113 40.7679C38.5761 40.8007 38.6961 40.5676 38.8773 40.4316C38.8886 40.4231 38.9026 40.4192 38.9166 40.4205C38.9306 40.4218 38.9437 40.4284 38.9533 40.4388C39.5056 41.0565 40.1267 41.6056 40.8038 42.0749C40.8116 42.0802 40.818 42.0876 40.8223 42.0962C40.8265 42.1049 40.8285 42.1145 40.828 42.1241C40.8275 42.1338 40.8245 42.1432 40.8194 42.1513C40.8143 42.1594 40.8072 42.166 40.7989 42.1705C40.6861 42.2309 40.5963 42.3281 40.5438 42.4468C40.4773 42.6038 40.4656 42.8437 40.5663 42.8982C40.7334 42.9902 41.0624 42.4963 41.2348 42.58C41.4347 42.6777 41.1645 43.4389 41.2795 43.4819C41.3682 43.5158 41.737 43.1518 41.7496 42.7539C41.7501 42.7441 41.753 42.7347 41.7581 42.7264C41.7631 42.7182 41.7701 42.7114 41.7784 42.7066C41.7866 42.7019 41.796 42.6993 41.8055 42.6993C41.815 42.6992 41.8243 42.7016 41.8327 42.7062C45.9422 44.9368 50.6055 44.1677 50.8694 44.1197C51.5897 43.9887 55.5078 43.2109 58.4269 40.0276C58.4333 40.0205 58.4413 40.0151 58.4502 40.012C58.4591 40.0088 58.4686 40.0081 58.4779 40.0097C58.4872 40.0113 58.4959 40.0152 58.5033 40.0212C58.5107 40.0272 58.5165 40.0349 58.5202 40.0438C58.536 40.0852 58.5552 40.1251 58.5775 40.1632C58.6068 40.2137 58.7313 40.4262 58.8766 40.4114C59.0121 40.3977 59.1342 40.1888 59.1251 40.0211C59.1222 39.9727 59.111 39.9688 59.0473 39.7112C59.0121 39.573 59.0121 39.5586 59.0209 39.542C59.0913 39.4053 59.5424 39.5842 59.6033 39.4698C59.6307 39.4186 59.5596 39.3436 59.2894 39.0449C59.2804 39.0353 59.2752 39.0227 59.2745 39.0095C59.2739 38.9962 59.2779 38.9832 59.2859 38.9727C59.6371 38.4872 59.9511 37.9744 60.225 37.4391L60.2299 37.4294C60.2841 37.657 60.3411 37.8147 60.3707 37.8118C60.4154 37.8074 60.4108 37.3789 60.4323 37.0264C60.4327 37.0194 60.4344 37.0125 60.4375 37.0062C60.4791 36.9164 60.5192 36.8258 60.5579 36.7363C60.5622 36.7263 60.5692 36.7177 60.5781 36.7115C60.587 36.7054 60.5975 36.702 60.6082 36.7017C60.6189 36.7013 60.6295 36.7042 60.6387 36.7098C60.648 36.7154 60.6554 36.7236 60.6603 36.7335C60.7331 36.885 60.8429 37.0978 61.0713 37.1996C61.1304 37.2263 61.2356 37.2717 61.3373 37.2356C61.572 37.1469 61.6839 36.6451 61.5058 36.3254C61.3911 36.1198 61.1807 36.0325 60.9249 35.951C60.9179 35.9487 60.9114 35.945 60.9059 35.9401C60.9003 35.9352 60.8957 35.9292 60.8924 35.9225C60.8892 35.9158 60.8872 35.9084 60.8868 35.9009C60.8863 35.8934 60.8873 35.8859 60.8897 35.8788C61.2413 34.8428 61.4458 33.7604 61.497 32.6648C61.4977 32.6541 61.5012 32.6438 61.5072 32.6351C61.5132 32.6263 61.5215 32.6195 61.531 32.6152C61.5406 32.6109 61.5511 32.6095 61.5615 32.611C61.5718 32.6125 61.5815 32.6168 61.5896 32.6236C61.6909 32.7106 61.7718 32.7557 61.8007 32.7398C61.851 32.7117 61.7363 32.4909 61.6371 31.7787C61.585 31.4054 61.6019 31.3675 61.6149 31.3646C61.6768 31.3484 61.8676 32.1402 61.9735 32.1222C62.035 32.1117 62.0639 31.7239 61.9647 31.3664Z" fill="#4EADAF"/>
<path d="M47.9045 10.7366C52.7219 10.7366 56.9052 12.5222 60.4544 16.0935C64.0036 19.6648 65.7778 24.0957 65.7771 29.3862C65.7771 34.6774 64.0843 39.1833 60.6986 42.904C57.3129 46.6246 53.1458 48.4854 48.1973 48.4864C43.2476 48.4864 39.0399 46.6506 35.5742 42.979C32.1085 39.3074 30.3749 34.935 30.3735 29.8617C30.3735 27.0917 30.8618 24.4967 31.8384 22.0764C32.8149 19.6562 34.1169 17.6286 35.7442 15.9936C37.3664 14.3621 39.2709 13.0547 41.36 12.1381C43.4764 11.2042 45.6579 10.7371 47.9045 10.7366ZM35.8736 29.91C35.8736 33.9881 37.1583 37.298 39.7277 39.8396C42.2964 42.3823 44.079 43.6536 48.3405 43.6536C51.5127 43.6536 54.3724 42.4167 56.9195 39.9428C59.4666 37.469 60.74 34.1478 60.7397 29.9793C60.7397 25.811 59.4552 22.4668 56.886 19.9465C54.3169 17.4262 51.446 16.1662 48.2733 16.1664C45.1001 16.1664 42.2404 17.4377 39.6943 19.9804C37.1481 22.523 35.8746 25.8329 35.8736 29.91Z" fill="#C4D650"/>
<path d="M38.9951 34.8877C41.097 34.6528 42.6743 33.271 42.5181 31.8013C42.3618 30.3316 40.5313 29.3306 38.4294 29.5655C36.3275 29.8003 34.7502 31.1821 34.9064 32.6518C35.0626 34.1215 36.8932 35.1225 38.9951 34.8877Z" fill="#E37A39"/>
<path d="M58.864 32.8266C60.9659 32.5917 62.5432 31.2099 62.387 29.7402C62.2307 28.2706 60.4002 27.2695 58.2983 27.5044C56.1964 27.7393 54.6191 29.1211 54.7753 30.5908C54.9315 32.0605 56.7621 33.0615 58.864 32.8266Z" fill="#E37A39"/>
<path d="M52.1144 20.1586C51.3022 19.9334 50.5383 19.5541 49.8625 19.0402C49.6929 18.9118 49.5292 18.7754 49.3716 18.6311C49.2147 18.4868 49.0644 18.3335 48.9194 18.1755C48.8491 18.0943 48.7787 18.015 48.7111 17.9302C48.6777 17.888 48.6436 17.8465 48.6109 17.8039L48.5144 17.6748C48.4817 17.6322 48.4511 17.5878 48.4205 17.5434L48.329 17.4107L48.2417 17.2743L48.1981 17.2065L48.1569 17.1365L48.076 16.9965C48.0496 16.9496 48.025 16.9013 47.9997 16.8522C47.9472 16.7581 47.9032 16.6592 47.8571 16.5614C47.7614 16.3677 47.6851 16.1646 47.608 15.9629L47.5084 15.6541C47.4905 15.6033 47.4789 15.5502 47.4648 15.4979L47.4236 15.341C47.3937 15.2371 47.3751 15.1303 47.3533 15.0246C47.3431 14.9712 47.3314 14.9185 47.3227 14.8651L47.2991 14.7046L47.2755 14.5444L47.2593 14.3832L47.2431 14.2219C47.2386 14.1681 47.2375 14.1137 47.2347 14.0603L47.2273 13.8987V13.737C47.2273 13.6833 47.2273 13.6288 47.2273 13.5754L47.2333 13.4141C47.2504 12.9851 47.311 12.559 47.4141 12.1428C47.3037 12.9844 47.3261 13.8386 47.4806 14.6729C47.5587 15.0857 47.6714 15.4907 47.8177 15.8836C47.8969 16.0766 47.9701 16.2728 48.064 16.4608C48.1094 16.5546 48.1524 16.6498 48.2048 16.7404C48.2298 16.7862 48.2537 16.8324 48.2794 16.8775L48.3586 17.012C48.786 17.731 49.3331 18.3676 49.9751 18.8927C50.6225 19.4219 51.3436 19.8486 52.1144 20.1586Z" fill="#29ABE2"/>
<path d="M49.0187 19.0306C48.8446 18.7376 48.7272 18.413 48.6728 18.0746C48.6181 17.7335 48.6163 17.3858 48.6675 17.0442C48.6925 16.8734 48.7294 16.7046 48.778 16.5392C48.8261 16.3738 48.8835 16.2114 48.95 16.0528C49.0854 15.7366 49.2503 15.4345 49.4427 15.1509L49.4779 15.0975L49.5152 15.0456L49.5905 14.9428C49.6408 14.8739 49.69 14.8046 49.7449 14.7397L49.9054 14.542L50.0746 14.3526C50.3043 14.1045 50.5485 13.871 50.8058 13.6534C51.3194 13.2212 51.8785 12.8493 52.4726 12.5444C51.9196 12.9112 51.3939 13.3195 50.8998 13.766C50.656 13.9898 50.4235 14.2262 50.2031 14.4742C49.9823 14.7212 49.7785 14.9838 49.5933 15.2599L49.4578 15.4677C49.4142 15.538 49.3726 15.6095 49.3315 15.6813C49.252 15.8256 49.1763 15.9735 49.1098 16.125C48.9739 16.4267 48.873 16.7437 48.8093 17.0695C48.7468 17.3963 48.731 17.7308 48.7622 18.0623C48.7939 18.3976 48.8806 18.7249 49.0187 19.0306Z" fill="#29ABE2"/>
<path d="M55.0641 12.9513L54.5662 12.6862L54.9068 12.1768C54.9361 12.1324 54.9525 12.0804 54.9542 12.0268C54.9559 11.9732 54.9428 11.9203 54.9165 11.874C54.8901 11.8277 54.8515 11.79 54.8052 11.7652C54.7589 11.7404 54.7066 11.7295 54.6545 11.7338L53.9268 11.7817L53.8565 11.1717C53.8301 10.9372 53.5472 10.8358 53.3779 11.0007L53.0539 11.3156L52.6956 10.8564C52.6626 10.8145 52.6189 10.7829 52.5694 10.7648C52.5199 10.7467 52.4665 10.743 52.4151 10.754C52.3636 10.765 52.3161 10.7903 52.2778 10.8271C52.2395 10.8639 52.2118 10.9109 52.1978 10.9628L51.9958 11.7475L51.3167 11.6111C51.0865 11.5649 50.9022 11.8045 51.0049 12.0166L51.1925 12.4041L50.7547 12.5664C50.7053 12.5838 50.6617 12.6152 50.629 12.657C50.5963 12.6989 50.5758 12.7493 50.5701 12.8026C50.5643 12.8559 50.5734 12.9097 50.5963 12.9579C50.6192 13.0061 50.655 13.0466 50.6995 13.0747L51.3293 13.4759L50.937 14.1732C50.9112 14.2199 50.8988 14.2732 50.9013 14.3268C50.9037 14.3804 50.9208 14.4322 50.9507 14.4763C50.9806 14.5204 51.022 14.5549 51.0702 14.5759C51.1184 14.5969 51.1714 14.6035 51.2231 14.595L51.7509 14.5192L51.7657 14.9431C51.7737 15.1794 52.0471 15.3039 52.2294 15.1513L52.7189 14.7436L53.2432 15.3176C53.2792 15.3568 53.325 15.3851 53.3757 15.3993C53.4263 15.4135 53.4798 15.4132 53.5303 15.3983C53.5808 15.3833 53.6263 15.3545 53.6618 15.3148C53.6973 15.2751 53.7214 15.2261 53.7316 15.1733L53.8392 14.5639L54.3319 14.7032C54.5578 14.7674 54.7597 14.5427 54.6739 14.3233L54.4455 13.7414L55.0486 13.4633C55.0967 13.442 55.1379 13.407 55.1674 13.3626C55.1969 13.3182 55.2134 13.266 55.215 13.2123C55.2167 13.1586 55.2033 13.1055 55.1766 13.0593C55.1499 13.0131 55.1108 12.9756 55.0641 12.9513Z" fill="#F4BE38"/>
<path opacity="0.47" d="M49.9634 11.9945L49.3079 11.6456L49.7547 10.9749C49.7934 10.9165 49.8152 10.8481 49.8176 10.7775C49.8199 10.7069 49.8027 10.6371 49.7679 10.5761C49.7332 10.5151 49.6823 10.4654 49.6212 10.4328C49.5601 10.4003 49.4912 10.3861 49.4226 10.392L48.4651 10.4547L48.3747 9.65203C48.3395 9.34322 47.9676 9.21009 47.7445 9.42691L47.3198 9.84143L46.8479 9.23715C46.8044 9.18201 46.7469 9.14024 46.6817 9.11642C46.6166 9.09259 46.5462 9.08764 46.4785 9.1021C46.4108 9.11657 46.3482 9.14989 46.2978 9.1984C46.2473 9.24692 46.2108 9.30876 46.1924 9.37713L45.9267 10.41L45.033 10.2296C44.7297 10.1686 44.4872 10.4843 44.6223 10.7632L44.8686 11.2733L44.2923 11.4869C44.2272 11.5098 44.1697 11.5512 44.1267 11.6063C44.0836 11.6614 44.0567 11.7279 44.0491 11.798C44.0415 11.8682 44.0534 11.9391 44.0836 12.0025C44.1137 12.066 44.1609 12.1194 44.2194 12.1564L45.0488 12.6842L44.5323 13.6024C44.3799 13.8737 44.6026 14.2016 44.9088 14.1576L45.6019 14.0573L45.6217 14.6158C45.6326 14.9267 45.9932 15.0884 46.2321 14.8896L46.8764 14.3531L47.5664 15.1082C47.7755 15.3369 48.1555 15.2244 48.2097 14.9177L48.3504 14.1157L48.9972 14.299C49.2945 14.3834 49.5602 14.0876 49.4472 13.7986L49.1467 13.0331L49.9405 12.6666C50.0036 12.6387 50.0577 12.593 50.0965 12.5348C50.1353 12.4766 50.1572 12.4084 50.1596 12.3379C50.1619 12.2675 50.1448 12.1978 50.1101 12.137C50.0753 12.0762 50.0245 12.0268 49.9634 11.9945Z" fill="#F4BE38"/>
<path opacity="0.47" d="M55.8638 12.9711L55.209 12.6223L55.6576 11.9516C55.6962 11.8931 55.7179 11.8247 55.7201 11.7541C55.7224 11.6835 55.7051 11.6138 55.6704 11.5528C55.6356 11.4919 55.5847 11.4422 55.5237 11.4096C55.4626 11.3771 55.3937 11.3628 55.3251 11.3686L54.3677 11.4314L54.2772 10.6287C54.242 10.3199 53.8701 10.1864 53.647 10.4032L53.2209 10.8177L52.7494 10.2135C52.7058 10.1585 52.6482 10.1168 52.5831 10.0931C52.5179 10.0694 52.4476 10.0645 52.3799 10.0789C52.3122 10.0934 52.2497 10.1266 52.1992 10.175C52.1487 10.2234 52.1121 10.2852 52.0935 10.3534L51.8278 11.3867L50.9341 11.2063C50.6308 11.1453 50.3883 11.4606 50.5235 11.7399L50.7698 12.25L50.1934 12.4635C50.1283 12.4865 50.0709 12.5279 50.0278 12.583C49.9848 12.6381 49.9579 12.7045 49.9502 12.7747C49.9426 12.8448 49.9546 12.9158 49.9847 12.9792C50.0149 13.0427 50.062 13.096 50.1206 13.1331L50.9513 13.6613L50.4351 14.5794C50.2824 14.8511 50.5055 15.179 50.8113 15.1346L51.5045 15.0347L51.5242 15.5932C51.5351 15.9041 51.8961 16.0658 52.1347 15.867L52.7772 15.3323L53.4676 16.0874C53.6762 16.3161 54.0563 16.2036 54.1104 15.8969L54.2512 15.0946L54.8979 15.2782C55.1953 15.3623 55.4609 15.0668 55.348 14.7778L55.0478 14.0119L55.8424 13.644C55.9055 13.6159 55.9595 13.5701 55.9982 13.5117C56.0369 13.4534 56.0587 13.385 56.0609 13.3145C56.0632 13.244 56.0458 13.1743 56.0109 13.1135C55.976 13.0527 55.925 13.0034 55.8638 12.9711Z" fill="#F4BE38"/>
<path d="M49.2117 12.0472L48.7138 11.7824L49.0544 11.273C49.0838 11.2286 49.1004 11.1766 49.1022 11.1229C49.1039 11.0693 49.0909 11.0163 49.0645 10.9699C49.0381 10.9236 48.9995 10.8858 48.953 10.8611C48.9066 10.8363 48.8543 10.8255 48.8021 10.8299L48.0745 10.8776L48.0041 10.2679C47.9777 10.033 47.6948 9.93201 47.5255 10.0965L47.2015 10.4115L46.8433 9.95257C46.8102 9.91073 46.7665 9.87904 46.717 9.86098C46.6675 9.84291 46.6141 9.83917 46.5627 9.85017C46.5112 9.86116 46.4637 9.88646 46.4254 9.9233C46.3871 9.96014 46.3594 10.0071 46.3454 10.059L46.1434 10.8437L45.4643 10.7073C45.2341 10.6611 45.0498 10.9007 45.1525 11.1128L45.3401 11.4999L44.9023 11.6622C44.8529 11.6797 44.8093 11.7112 44.7766 11.753C44.744 11.7949 44.7235 11.8454 44.7178 11.8986C44.712 11.9519 44.7211 12.0058 44.7439 12.054C44.7668 12.1022 44.8026 12.1427 44.8471 12.1709L45.4769 12.5717L45.0846 13.2694C45.0588 13.3161 45.0464 13.3694 45.0489 13.423C45.0513 13.4766 45.0684 13.5284 45.0983 13.5725C45.1282 13.6166 45.1696 13.6511 45.2178 13.6721C45.266 13.6931 45.319 13.6997 45.3707 13.6912L45.8985 13.615L45.9133 14.0393C45.9214 14.2756 46.1948 14.3983 46.377 14.2475L46.8665 13.8398L47.3908 14.4134C47.4268 14.4526 47.4726 14.4809 47.5233 14.4951C47.5739 14.5094 47.6275 14.509 47.6779 14.4941C47.7284 14.4792 47.7739 14.4503 47.8094 14.4106C47.8449 14.3709 47.869 14.3219 47.8792 14.2691L47.9868 13.6598L48.4795 13.799C48.7054 13.8629 48.9073 13.6385 48.8215 13.4188L48.5935 12.8369L49.1966 12.5584C49.2445 12.5369 49.2855 12.502 49.3148 12.4576C49.3441 12.4132 49.3605 12.3612 49.3621 12.3077C49.3637 12.2541 49.3504 12.2012 49.3237 12.1551C49.2971 12.1089 49.2583 12.0715 49.2117 12.0472Z" fill="#F4BE38"/>
<path d="M45.2635 16.5458C45.3588 16.0848 45.2385 15.351 44.0671 14.242C44.023 14.1997 43.9891 14.1474 43.9683 14.0892C43.9474 14.0311 43.9401 13.9688 43.947 13.9073C43.9538 13.8457 43.9746 13.7867 44.0077 13.7349C44.0408 13.6831 44.0852 13.6399 44.1375 13.6088C44.1916 13.5755 44.2527 13.5557 44.3157 13.5513C44.3788 13.5468 44.4419 13.5578 44.5 13.5832C44.5581 13.6087 44.6095 13.6479 44.6499 13.6977C44.6903 13.7475 44.7186 13.8065 44.7325 13.8697C45.0534 15.4065 45.6882 16.1006 46.2286 16.4502C49.083 18.2962 54.7401 14.0414 58.8988 15.2756C59.2778 15.3878 60.3415 15.7031 60.4158 16.3074C60.4971 16.9567 59.3904 17.5866 59.2067 17.6912C56.5631 19.1938 53.0226 17.443 52.8537 17.8716C52.6872 18.2952 56.2668 19.6534 56.0761 20.6495C55.9572 21.2729 54.3727 21.7065 52.9536 21.5297C50.1386 21.1791 48.6351 18.5087 47.8867 18.9745C47.4693 19.2342 47.9454 20.0568 47.5626 21.5752C47.4971 21.8357 46.9021 24.1972 45.5903 24.3394C44.5977 24.4476 43.4408 23.2571 43.3092 22.0785C43.1272 20.4522 44.9443 19.236 44.629 18.8489C44.3957 18.5625 43.1434 18.9142 42.2412 19.779C40.8819 21.082 41.4193 22.4933 40.3221 23.1084C39.2514 23.7088 37.6887 22.953 36.9273 22.3851C36.3674 21.9674 35.6939 21.4648 35.7344 20.9132C35.8755 18.9673 44.7184 19.1823 45.2635 16.5458Z" fill="#C4D650"/>
<path d="M41.6186 30.1665C44.1073 29.8884 45.9195 27.7326 45.6664 25.3514C45.4133 22.9702 43.1906 21.2653 40.7019 21.5434C38.2133 21.8214 36.401 23.9772 36.6541 26.3584C36.9073 28.7396 39.1299 30.4446 41.6186 30.1665Z" fill="#E2E2E2"/>
<path d="M42.7913 29.2373C44.4903 29.0474 45.7274 27.5756 45.5546 25.9498C45.3818 24.3241 43.8644 23.16 42.1655 23.3499C40.4666 23.5397 39.2295 25.0115 39.4023 26.6373C39.5751 28.2631 41.0924 29.4271 42.7913 29.2373Z" fill="black"/>
<path d="M41.643 24.513C41.7328 24.0846 41.1912 23.6019 40.4331 23.4347C39.6751 23.2675 38.9877 23.4792 38.8978 23.9075C38.808 24.3359 39.3496 24.8186 40.1077 24.9858C40.8657 25.153 41.5531 24.9413 41.643 24.513Z" fill="white"/>
<path d="M55.6797 28.9542C58.1683 28.6761 59.9846 26.5577 59.7364 24.2227C59.4881 21.8876 57.2695 20.2201 54.7808 20.4982C52.2921 20.7763 50.4759 22.8946 50.7241 25.2297C50.9723 27.5648 53.191 29.2323 55.6797 28.9542Z" fill="#E2E2E2"/>
<path d="M54.129 27.9765C55.8279 27.7867 57.0678 26.3405 56.8983 24.7465C56.7289 23.1524 55.2143 22.014 53.5154 22.2039C51.8164 22.3937 50.5766 23.8399 50.746 25.4339C50.9155 27.028 52.4301 28.1664 54.129 27.9765Z" fill="black"/>
<path d="M56.101 23.9304C56.7917 23.5713 57.1979 22.9693 57.0082 22.5858C56.8185 22.2023 56.1049 22.1826 55.4142 22.5417C54.7235 22.9008 54.3173 23.5028 54.507 23.8862C54.6967 24.2697 55.4104 24.2895 56.101 23.9304Z" fill="white"/>
<path d="M36.8994 7.55168C37.6299 7.78257 38.1915 8.21115 38.5842 8.83744C39.0214 9.5669 39.1591 10.3283 38.9973 11.1218C38.8354 11.9152 38.4208 12.532 37.7534 12.9721L34.9835 14.7983C34.4908 15.1223 34.1171 15.1753 33.8624 14.9574C33.7435 14.8629 33.6051 14.6896 33.4472 14.4376L29.6885 8.44456C29.6071 8.31979 29.5331 8.19004 29.4672 8.05602C29.4224 7.94586 29.3967 7.82854 29.3912 7.70933C29.3677 7.4503 29.5806 7.17264 30.0298 6.87633L32.6836 5.12663C33.3297 4.70045 34.0149 4.5743 34.7393 4.74819C35.4899 4.9151 36.0703 5.32613 36.4803 5.98128C36.7759 6.44733 36.9224 6.99627 36.8994 7.55168ZM36.6531 9.95868C36.5447 9.78576 36.4391 9.66166 36.3364 9.58638C36.2897 9.55015 36.2364 9.52375 36.1797 9.5087C36.123 9.49366 36.064 9.49026 36.006 9.49871C35.8294 9.53407 35.6147 9.63496 35.3621 9.80139C35.1094 9.96782 34.8882 10.0424 34.6984 10.0251C34.5089 10.0077 34.3159 9.84252 34.1196 9.52938C33.9233 9.21624 33.8584 8.96635 33.925 8.77971C33.9914 8.59356 34.1757 8.40115 34.4778 8.20249C34.7593 8.01754 34.8804 7.83079 34.8409 7.64223C34.8126 7.54915 34.7422 7.41266 34.6298 7.23276C34.5175 7.05286 34.3806 6.96508 34.2192 6.96941C34.058 6.97374 33.8617 7.05226 33.6302 7.20498L32.1555 8.17904L34.7224 12.2715L36.4497 11.1326C36.8919 10.8394 36.9594 10.4481 36.6524 9.95868H36.6531Z" fill="#E37A39"/>
<path d="M37.7178 3.72537C37.663 3.58841 37.616 3.44832 37.577 3.3058C37.5532 3.18705 37.55 3.06493 37.5675 2.94504C37.5942 2.68601 37.8565 2.45753 38.3543 2.25959C38.8987 2.04169 39.2777 2.06009 39.4912 2.31478C39.5817 2.43504 39.68 2.63454 39.7861 2.91329L42.3174 9.55998C42.3727 9.69884 42.4197 9.84099 42.4582 9.98568C42.4803 10.1027 42.4828 10.2228 42.4656 10.3407C42.4386 10.5997 42.1762 10.8282 41.6784 11.0261C41.1342 11.244 40.7577 11.22 40.5489 10.954C40.4539 10.845 40.3533 10.651 40.247 10.3721L37.7178 3.72537Z" fill="#E37A39"/>
<path d="M46.0698 0.0513072C47.2927 -0.129796 48.4186 0.16627 49.4478 0.939505C50.4769 1.71274 51.0854 2.77098 51.2733 4.11422C51.4623 5.45697 51.1935 6.66408 50.4668 7.73555C49.74 8.80701 48.7489 9.4357 47.4935 9.62162C46.2375 9.80729 45.1041 9.49932 44.0933 8.6977C43.0825 7.89609 42.4864 6.85144 42.3051 5.56376C42.2047 4.88718 42.2365 4.19688 42.3987 3.53303C42.5601 2.88221 42.8181 2.3187 43.1728 1.84249C43.5261 1.36691 43.9628 0.963153 44.4607 0.651977C44.951 0.340401 45.4988 0.135914 46.0698 0.0513072ZM44.4864 5.17414C44.5926 5.92813 44.9163 6.50535 45.4575 6.9058C45.9987 7.30624 46.5626 7.46257 47.1493 7.37479C47.7358 7.28772 48.2324 6.98071 48.6392 6.45376C49.0459 5.92681 49.1949 5.27743 49.086 4.50564C48.9777 3.73481 48.6531 3.15158 48.1124 2.75594C47.5717 2.36031 47.0081 2.20578 46.4217 2.29236C45.8352 2.37919 45.3395 2.69257 44.9346 3.23251C44.5298 3.77245 44.3809 4.42002 44.4881 5.17522L44.4864 5.17414Z" fill="#E37A39"/>
</svg>
